<?xml version="1.0" encoding="utf-8"?>
<!-- Generator: Adobe Illustrator 24.0.3, SVG Export Plug-In . SVG Version: 6.00 Build 0)  -->
<svg version="1.1" id="Layer_1" xmlns="http://www.w3.org/2000/svg" xmlns:xlink="http://www.w3.org/1999/xlink" x="0px" y="0px"
	 viewBox="0 0 500 500" style="enable-background:new 0 0 500 500;" xml:space="preserve">
<style type="text/css">
	.st0{fill:#737373;}
	.st1{fill:#BF6634;}
</style>
<g transform="translate(0.000000,500.000000) scale(0.100000,-0.100000)">
	<path class="st0" d="M3001.2,3735.8c-153.3-61-205.5-97.5-205.5-154.4c0-89.4,574.2-2519.5,600.3-2556.1
		c29.4-32.5,502.4,117.8,538.3,170.7c19.6,28.4-81.6,524.2-270.8,1324.8C3317.7,3979.6,3369.9,3882.1,3001.2,3735.8z"/>
	<path class="st1" d="M1219.8,3756.1c-13.1-16.3-22.8-638-22.8-1381.7V1017.2l75-20.3c39.2-12.2,169.7-20.3,283.8-12.2l212.1,12.2
		v1381.7v1381.7l-261,12.2C1360.1,3776.4,1232.9,3772.3,1219.8,3756.1z"/>
	<path class="st0" d="M2029,3731.7c-9.8-28.4-13.1-658.3-9.8-1393.9l9.8-1341h277.3h277.3v1381.7v1381.7l-270.8,12.2
		C2117.1,3780.5,2038.8,3768.3,2029,3731.7z"/>
</g>
</svg>
